<svg xmlns="http://www.w3.org/2000/svg" width="402.812" height="40.213" viewBox="0 0 402.812 40.213"><defs><style>.a{fill:#fff;}</style></defs><path class="a" d="M367.037,150.91a9.272,9.272,0,0,1-4.223-1.012c-2.628-1.324-5-3.976-7.061-7.883a8.418,8.418,0,0,1-.694-5.565,30.114,30.114,0,0,1,1.756-5.523,20.217,20.217,0,0,0,1.729-6.176,5.394,5.394,0,0,0-2.634-4.917c-8.183-5.677-22.162-4.274-31.741.045-4.749,2.141-4.421,4.991-4.041,8.29.4,3.438.845,7.334-5.028,10.332a42.444,42.444,0,0,1-16.065,4.811c-5.009.459-10.674.149-18.944-1.034-7.48-1.071-10.623-4.441-13.4-7.415-2.854-3.061-5.108-5.478-11.274-4.827-5.92.625-9.268,5.028-12.507,9.286a32.027,32.027,0,0,1-5.5,6.122,10.064,10.064,0,0,1-7.723,2.159,11.657,11.657,0,0,1-7.746-4.719A46.5,46.5,0,0,1,217,134.452c-2.482-4.985-4.825-9.693-8.805-10.276a4.279,4.279,0,0,0-4.444,1.588,18.74,18.74,0,0,0-2.367,5.39,31.375,31.375,0,0,1-2.547,6.179,11.715,11.715,0,0,1-5.234,4.9,26.978,26.978,0,0,1-12.993,2.891,34.933,34.933,0,0,1-11.37-2.88c-1.819-.728-2.828-1.427-3.272-2.265a3.423,3.423,0,0,1-.08-2.479c.365-1.7.82-3.807-3.407-7.592a75.772,75.772,0,0,1-6.3-6.659c-5.766-6.608-11.212-12.85-20.56-11.32-5.707.934-7.349,5.255-9.251,10.259a34.524,34.524,0,0,1-4.658,9.215,20.891,20.891,0,0,1-10.817,7.128,54.99,54.99,0,0,1-16.175,1.994,120.634,120.634,0,0,1-16.793-1.378,166.375,166.375,0,0,1-18.554-3.806l.27-.963a165.337,165.337,0,0,0,18.441,3.782c9.465,1.388,22.789,2.413,32.515-.584,10.025-3.089,12.581-9.812,14.835-15.743a28.119,28.119,0,0,1,3.37-6.962,9.814,9.814,0,0,1,6.655-3.928,16.439,16.439,0,0,1,6.739.216,17.43,17.43,0,0,1,5.591,2.555c3.39,2.285,6.316,5.637,9.145,8.879a75.014,75.014,0,0,0,6.212,6.572,11.768,11.768,0,0,1,3.735,5.1,6.478,6.478,0,0,1-.018,3.449,2.589,2.589,0,0,0-.014,1.8c.317.6,1.219,1.188,2.761,1.805,8.23,3.3,14.423,4.273,23.57.011,4.479-2.087,5.953-6.55,7.254-10.488a19.348,19.348,0,0,1,2.528-5.691,5.306,5.306,0,0,1,5.377-1.963c4.5.658,6.954,5.594,9.555,10.82,2.9,5.828,5.9,11.855,11.921,12.6,5.759.716,8.94-3.466,12.308-7.894a39.46,39.46,0,0,1,5.426-6.189,13.882,13.882,0,0,1,7.771-3.486A12.441,12.441,0,0,1,262.8,130.2a18.4,18.4,0,0,1,4.629,3.981c2.66,2.853,5.675,6.086,12.806,7.107,14.094,2.018,23.286,2,34.412-3.677,5.255-2.682,4.883-5.91,4.49-9.327a11.659,11.659,0,0,1,.139-5c.6-1.813,2.066-3.225,4.484-4.315a44.923,44.923,0,0,1,17.163-3.887c6.287-.127,11.667,1.233,15.558,3.932,4.759,3.3,2.983,7.865,1.266,12.278-1.36,3.5-2.767,7.111-1.109,10.259,1.959,3.719,4.188,6.227,6.626,7.456,2.523,1.271,5.357,1.2,8.423-.224,2.709-1.254,3.2-4.8,3.729-8.546a24.516,24.516,0,0,1,1.644-6.926,7.217,7.217,0,0,1,5.486-4.262,10.515,10.515,0,0,1,7.011,1.288,41.937,41.937,0,0,1,6.4,4.506c4.42,3.525,8.991,7.17,14.722,6.445,5.405-.684,6.681-4.058,8.158-7.965a21.2,21.2,0,0,1,3.019-5.964,12.07,12.07,0,0,1,6.951-4.161,31.909,31.909,0,0,1,10.74-.387,69.388,69.388,0,0,1,10.842,2.172,97.263,97.263,0,0,1,11.793,4.1l-.4.915a96.22,96.22,0,0,0-11.671-4.055c-6.018-1.667-14.559-3.327-21.069-1.772-6.237,1.49-7.777,5.565-9.267,9.506a18.491,18.491,0,0,1-2.778,5.477,9.113,9.113,0,0,1-6.189,3.127,13.986,13.986,0,0,1-8.393-1.709,45.291,45.291,0,0,1-7.078-4.946c-4.164-3.321-8.1-6.457-12.6-5.594a6.2,6.2,0,0,0-4.77,3.706,23.818,23.818,0,0,0-1.558,6.638,28.235,28.235,0,0,1-1.125,5.5,6.2,6.2,0,0,1-3.174,3.82A12.07,12.07,0,0,1,367.037,150.91Z" transform="translate(-59.368 -110.697)"/></svg>